# xmcd
#
# Track frame offsets:
#	150
#	15163
#	31083
#	48118
#	62712
#	77422
#	93043
#	104903
#	122115
#	137125
#	154160
#	172110
#	188995
#	208505
#	222405
#
# Disc length: 3206 seconds
#
# Revision: 0
# Processed by: cddbd v1.5.2PL0 Copyright (c) Steve Scherf et al.
# Submitted via: FairStars CD Ripper 1.90
#
DISCID=c60c840f
DTITLE=Victoria Eman - Change of Direction
DYEAR=2015
DGENRE=Country
TTITLE0=City Girl
TTITLE1=Let's Love Each Other
TTITLE2=Another Victim of Love
TTITLE3=Give My Broken Heart A Break
TTITLE4=Distant Love
TTITLE5=This Bed Was Made For Two
TTITLE6=Straight Line
TTITLE7=You Have Captured My Heart
TTITLE8=Love Me Just A Little
TTITLE9=Wishin' Heaven Had A Phone
TTITLE10=Empty Feeling
TTITLE11=Now I'm Needing You
TTITLE12=Tear Stained Letters
TTITLE13=Crazy In Love
TTITLE14=Letting Go
EXTD=
EXTT0=
EXTT1=
EXTT2=
EXTT3=
EXTT4=
EXTT5=
EXTT6=
EXTT7=
EXTT8=
EXTT9=
EXTT10=
EXTT11=
EXTT12=
EXTT13=
EXTT14=
PLAYORDER=
